<svg width="61" height="61" viewBox="0 0 61 61" fill="none" xmlns="http://www.w3.org/2000/svg">
<path d="M0 30.5C0 13.6553 13.6553 0 30.5 0C47.3447 0 61 13.6553 61 30.5C61 47.3447 47.3447 61 30.5 61C13.6553 61 0 47.3447 0 30.5Z" fill="#C2C9D1"/>
<path d="M0 30.5C0 13.6553 13.6553 0 30.5 0C47.3447 0 61 13.6553 61 30.5C61 47.3447 47.3447 61 30.5 61C13.6553 61 0 47.3447 0 30.5Z" fill="white" fill-opacity="0.75"/>
<path d="M30.4998 30.5C34.0105 30.5 36.854 27.6565 36.854 24.1458C36.854 20.6351 34.0105 17.7916 30.4998 17.7916C26.9892 17.7916 24.1457 20.6351 24.1457 24.1458C24.1457 27.6565 26.9892 30.5 30.4998 30.5ZM30.4998 33.677C26.2584 33.677 17.7915 35.8057 17.7915 40.0312V43.2083H43.2082V40.0312C43.2082 35.8057 34.7412 33.677 30.4998 33.677Z" fill="black" fill-opacity="0.25"/>
</svg>
