<svg width="41" height="41" viewBox="0 0 41 41" fill="none" xmlns="http://www.w3.org/2000/svg">
<path fill-rule="evenodd" clip-rule="evenodd" d="M5.76562 26.9062C5.76562 26.1986 6.33926 25.625 7.04688 25.625H9.28906C10.6483 25.625 11.9519 26.165 12.913 27.1261C13.8741 28.0872 14.4141 29.3908 14.4141 30.75C14.4141 32.1092 13.8741 33.4128 12.913 34.3739C11.9519 35.335 10.6483 35.875 9.28906 35.875H7.04688C6.33926 35.875 5.76562 35.3014 5.76562 34.5938V26.9062ZM8.32812 28.1875V33.3125H9.28906C9.96868 33.3125 10.6205 33.0425 11.101 32.562C11.5816 32.0814 11.8516 31.4296 11.8516 30.75C11.8516 30.0704 11.5816 29.4186 11.101 28.938C10.6205 28.4575 9.96868 28.1875 9.28906 28.1875H8.32812Z" fill="black"/>
<path fill-rule="evenodd" clip-rule="evenodd" d="M20.8203 28.1875C19.6846 28.1875 18.5781 29.2275 18.5781 30.75C18.5781 32.2725 19.6846 33.3125 20.8203 33.3125C21.956 33.3125 23.0625 32.2725 23.0625 30.75C23.0625 29.2275 21.956 28.1875 20.8203 28.1875ZM16.0156 30.75C16.0156 28.0268 18.0641 25.625 20.8203 25.625C23.5765 25.625 25.625 28.0268 25.625 30.75C25.625 33.4732 23.5765 35.875 20.8203 35.875C18.0641 35.875 16.0156 33.4732 16.0156 30.75Z" fill="black"/>
<path fill-rule="evenodd" clip-rule="evenodd" d="M31.7058 28.1875C30.5643 28.1906 29.4688 29.2223 29.4688 30.75C29.4688 32.2777 30.5643 33.3094 31.7058 33.3125C32.2181 33.3071 32.7104 33.113 33.0886 32.7672C33.6109 32.2898 34.4213 32.3261 34.8988 32.8484C35.3762 33.3707 35.3399 34.1811 34.8176 34.6585C33.9711 35.4324 32.8682 35.8657 31.7213 35.875L31.7109 35.875V35.875C28.9465 35.875 26.9062 33.4801 26.9062 30.75C26.9062 28.0199 28.9465 25.625 31.7109 25.625H31.7213V25.625C32.8682 25.6343 33.9711 26.0676 34.8176 26.8415C35.3399 27.3189 35.3762 28.1293 34.8988 28.6516C34.4213 29.1739 33.6109 29.2102 33.0886 28.7328C32.7104 28.387 32.2181 28.1929 31.7058 28.1875Z" fill="black"/>
<path fill-rule="evenodd" clip-rule="evenodd" d="M7.15679 4.59429C7.63735 4.11373 8.28913 3.84375 8.96875 3.84375H24.3438C24.6836 3.84375 25.0094 3.97874 25.2497 4.21902L34.2185 13.1878C34.4588 13.4281 34.5938 13.7539 34.5938 14.0938V20.5C34.5938 21.2076 34.0201 21.7812 33.3125 21.7812C32.6049 21.7812 32.0312 21.2076 32.0312 20.5V14.6245L23.813 6.40625L8.96875 6.40625L8.96875 20.5C8.96875 21.2076 8.39511 21.7812 7.6875 21.7812C6.97989 21.7812 6.40625 21.2076 6.40625 20.5V6.40625C6.40625 5.72663 6.67623 5.07485 7.15679 4.59429Z" fill="black"/>
<path fill-rule="evenodd" clip-rule="evenodd" d="M24.3438 3.84375C25.0514 3.84375 25.625 4.41739 25.625 5.125V12.8125H33.3125C34.0201 12.8125 34.5938 13.3861 34.5938 14.0938C34.5938 14.8014 34.0201 15.375 33.3125 15.375H24.3438C23.6361 15.375 23.0625 14.8014 23.0625 14.0938V5.125C23.0625 4.41739 23.6361 3.84375 24.3438 3.84375Z" fill="black"/>
</svg>
