<svg width="42" height="42" viewBox="0 0 42 42" fill="none" xmlns="http://www.w3.org/2000/svg">
<path fill-rule="evenodd" clip-rule="evenodd" d="M7.33134 4.70634C7.82363 4.21406 8.49131 3.9375 9.1875 3.9375H24.9375C25.2856 3.9375 25.6194 4.07578 25.8656 4.32192L35.0531 13.5094C35.2992 13.7556 35.4375 14.0894 35.4375 14.4375V21C35.4375 21.7249 34.8499 22.3125 34.125 22.3125C33.4001 22.3125 32.8125 21.7249 32.8125 21V14.9812L24.3938 6.5625L9.1875 6.5625L9.1875 21C9.1875 21.7249 8.59987 22.3125 7.875 22.3125C7.15013 22.3125 6.5625 21.7249 6.5625 21V6.5625C6.5625 5.86631 6.83906 5.19863 7.33134 4.70634Z" fill="black"/>
<path fill-rule="evenodd" clip-rule="evenodd" d="M24.9375 3.9375C25.6624 3.9375 26.25 4.52513 26.25 5.25V13.125H34.125C34.8499 13.125 35.4375 13.7126 35.4375 14.4375C35.4375 15.1624 34.8499 15.75 34.125 15.75H24.9375C24.2126 15.75 23.625 15.1624 23.625 14.4375V5.25C23.625 4.52513 24.2126 3.9375 24.9375 3.9375Z" fill="black"/>
<path fill-rule="evenodd" clip-rule="evenodd" d="M6.5625 27.5625C6.5625 26.8376 7.15013 26.25 7.875 26.25H10.5C11.5443 26.25 12.5458 26.6648 13.2842 27.4033C14.0227 28.1417 14.4375 29.1432 14.4375 30.1875C14.4375 31.2318 14.0227 32.2333 13.2842 32.9717C12.5458 33.7102 11.5443 34.125 10.5 34.125H9.1875V35.4375C9.1875 36.1624 8.59987 36.75 7.875 36.75C7.15013 36.75 6.5625 36.1624 6.5625 35.4375V27.5625ZM9.1875 31.5H10.5C10.8481 31.5 11.1819 31.3617 11.4281 31.1156C11.6742 30.8694 11.8125 30.5356 11.8125 30.1875C11.8125 29.8394 11.6742 29.5056 11.4281 29.2594C11.1819 29.0133 10.8481 28.875 10.5 28.875H9.1875V31.5Z" fill="black"/>
<path fill-rule="evenodd" clip-rule="evenodd" d="M29.5312 27.5625C29.5312 26.8376 30.1189 26.25 30.8438 26.25H35.4375C36.1624 26.25 36.75 26.8376 36.75 27.5625C36.75 28.2874 36.1624 28.875 35.4375 28.875H32.1562V35.4375C32.1562 36.1624 31.5686 36.75 30.8438 36.75C30.1189 36.75 29.5312 36.1624 29.5312 35.4375V27.5625Z" fill="black"/>
<path fill-rule="evenodd" clip-rule="evenodd" d="M29.5312 32.1562C29.5312 31.4314 30.1189 30.8438 30.8438 30.8438H34.7812C35.5061 30.8438 36.0938 31.4314 36.0938 32.1562C36.0938 32.8811 35.5061 33.4688 34.7812 33.4688H30.8438C30.1189 33.4688 29.5312 32.8811 29.5312 32.1562Z" fill="black"/>
<path fill-rule="evenodd" clip-rule="evenodd" d="M17.3906 27.5625C17.3906 26.8376 17.9783 26.25 18.7031 26.25H21C22.3924 26.25 23.7277 26.8031 24.7123 27.7877C25.6969 28.7723 26.25 30.1076 26.25 31.5C26.25 32.8924 25.6969 34.2277 24.7123 35.2123C23.7277 36.1969 22.3924 36.75 21 36.75H18.7031C17.9783 36.75 17.3906 36.1624 17.3906 35.4375V27.5625ZM20.0156 28.875V34.125H21C21.6962 34.125 22.3639 33.8484 22.8562 33.3562C23.3484 32.8639 23.625 32.1962 23.625 31.5C23.625 30.8038 23.3484 30.1361 22.8562 29.6438C22.3639 29.1516 21.6962 28.875 21 28.875H20.0156Z" fill="black"/>
</svg>
